<?xml version="1.0" encoding="utf-8"?>
<!-- Generator: Adobe Illustrator 18.1.1, SVG Export Plug-In . SVG Version: 6.00 Build 0)  -->
<svg version="1.1" xmlns="http://www.w3.org/2000/svg" xmlns:xlink="http://www.w3.org/1999/xlink" x="0px" y="0px"
	 viewBox="0 0 400 400" enable-background="new 0 0 400 400" xml:space="preserve">
<g id="Assesment">
	<g id="Layer_38" display="none">
		<g display="inline">
			<g>
				<rect x="114.1" y="121.1" fill="#970A82" width="158" height="89.1"/>
				<g>
					<rect x="114.1" y="143.4" opacity="0.4" fill="#F0AB00" width="158" height="22.3"/>
					<rect x="114.1" y="165.6" opacity="0.7" fill="#F0AB00" width="158" height="22.3"/>
					<rect x="114.1" y="187.9" fill="#F0AB00" width="158" height="22.3"/>
				</g>
			</g>
			<path d="M286.9,221.6V106.4H99.3v115.2l-29.6,42v0.8v14.8v4.9h246.8v-4.9v-14.8v-0.8L286.9,221.6z M290.1,234.8h-194l7-9.9h180.1
				L290.1,234.8z M104.3,111.3H282v108.6H104.3V111.3z M74.6,279.2v-9.9h87.3h62.1h87.5v9.9H74.6z M168.8,264.4l3.3-9.9h42l3.3,9.9
				H168.8z M222.4,264.4l-4.9-14.8h-49.1l-4.9,14.8H75.2l17.4-24.7h201l17.4,24.7H222.4z"/>
		</g>
	</g>
	<g id="Layer_12" display="none">
		<g display="inline">
			<path fill="#231F20" d="M181.4,238h-28.3v14.2h4.7v-9.4h23.6h28.3h23.6v9.4h4.7V238h-28.3v-23h94.4V92.3H87V215h94.4V238z
				 M186.1,238v-22.4H205V238H186.1z M91.7,97h207.7v113.3H91.7V97z M265,262.8H126l-41.4,46.6h221.7L265,262.8z M283.3,290.5H107.7
				l8.4-9.4H275L283.3,290.5z M128.2,267.5h134.8l7.9,8.8H120.3L128.2,267.5z M103.8,295v0.3h182.9v-0.9l9.2,10.4H95.2L103.8,295z"
				/>
			<g>
				<rect x="101.1" y="106.4" fill="#AB218E" width="188.8" height="94.4"/>
				<g>
					<rect x="101.1" y="106.4" fill="#FDB913" width="47.2" height="94.4"/>
					<rect x="148.3" y="106.4" opacity="0.7" fill="#FDB913" width="47.2" height="94.4"/>
					<rect x="195.5" y="106.4" opacity="0.4" fill="#FDB913" width="47.2" height="94.4"/>
				</g>
			</g>
		</g>
	</g>
	<g id="Layer_98" display="none">
		<polygon display="inline" fill="#008FD3" points="109.5,286.3 61.7,342.3 342.5,343.6 294.2,286.3 		"/>
	</g>
	<g id="Layer_74" display="none">
		<g display="inline">
			<path d="M182.9,250.9h-38.3V270h6.4v-12.8h31.9h38.3h31.9V270h6.4v-19.2h-38.3v-31.1h127.7v-166H55.3v166h127.7V250.9z
				 M189.3,250.9v-30.3h25.5v30.3H189.3z M61.7,60.2h280.9v153.2H61.7V60.2z M296.1,283h-188l-55.9,64.4l299.9-1.4L296.1,283z
				 M320.8,320.5H83.4l11.3-12.8h214.8L320.8,320.5z M111,289.4h182.3l10.6,12H100.4L111,289.4z M78,326.6v0.4h247.4v-1.3l12.5,14
				H66.4L78,326.6z"/>
			<g>
				<rect x="74.4" y="72.9" fill="#008FD3" width="255.3" height="127.7"/>
				<g>
					<rect x="74.4" y="72.9" fill="#F0AB00" width="63.8" height="127.7"/>
					<rect x="138.3" y="72.9" opacity="0.7" fill="#F0AB00" width="63.8" height="127.7"/>
					<rect x="202.1" y="72.9" opacity="0.4" fill="#F0AB00" width="63.8" height="127.7"/>
				</g>
			</g>
		</g>
	</g>
	<g id="Layer_154">
		<ellipse fill="#FFFFFF" cx="201.7" cy="172.2" rx="56.6" ry="57.2"/>
		<g>
			<g>
				<path fill="#008FD3" d="M347.8,67.2h-74.2v0h-74.2h-74.2H47.2v193h77.9h74.2h74.2h70.5l0,0h3.7V67.2z M199.7,234.1
					c-0.1,0-0.2,0-0.3,0c-18.2-0.1-34.8-7-47.2-18.4c0,0,0,0,0,0c-0.8-0.8-1.6-1.5-2.4-2.3c0,0,0-0.1-0.1-0.1
					c-0.8-0.8-1.5-1.6-2.3-2.4c0,0-0.1-0.1-0.1-0.2c-0.7-0.8-1.4-1.6-2.1-2.4c-0.1-0.1-0.1-0.2-0.2-0.3c-0.6-0.8-1.3-1.6-1.9-2.4
					c-0.1-0.1-0.2-0.2-0.3-0.4c-0.6-0.8-1.2-1.6-1.7-2.4c-0.1-0.2-0.2-0.3-0.3-0.5c-0.5-0.8-1-1.6-1.5-2.4c-0.1-0.2-0.2-0.4-0.4-0.6
					c-0.5-0.8-0.9-1.5-1.3-2.3c-0.1-0.3-0.3-0.5-0.4-0.8c-0.4-0.7-0.8-1.5-1.1-2.2c-0.2-0.3-0.3-0.7-0.4-1c-0.3-0.7-0.7-1.4-1-2.1
					c-0.2-0.4-0.3-0.8-0.5-1.2c-0.3-0.7-0.5-1.4-0.8-2c-0.2-0.4-0.3-0.9-0.5-1.3c-0.2-0.6-0.5-1.3-0.7-1.9c-0.1-0.5-0.3-0.9-0.4-1.4
					c-0.2-0.6-0.4-1.3-0.5-1.9c-0.1-0.5-0.2-1.1-0.4-1.6c-0.1-0.6-0.3-1.2-0.4-1.8c-0.1-0.6-0.2-1.2-0.3-1.8
					c-0.1-0.5-0.2-1.1-0.3-1.6c-0.1-0.7-0.2-1.4-0.3-2.1c-0.1-0.5-0.1-1-0.2-1.5c-0.1-0.8-0.1-1.5-0.2-2.3c0-0.4-0.1-0.9-0.1-1.3
					c-0.1-1.2-0.1-2.4-0.1-3.6c0-1.2,0-2.4,0.1-3.6c0-0.4,0.1-0.8,0.1-1.2c0.1-0.8,0.1-1.6,0.2-2.3c0-0.5,0.1-1,0.2-1.4
					c0.1-0.7,0.2-1.4,0.3-2.1c0.1-0.5,0.2-1.1,0.3-1.6c0.1-0.6,0.2-1.2,0.3-1.8c0.1-0.6,0.3-1.2,0.4-1.8c0.1-0.5,0.2-1.1,0.4-1.6
					c0.2-0.6,0.4-1.3,0.5-1.9c0.1-0.5,0.3-0.9,0.4-1.4c0.2-0.7,0.4-1.3,0.7-2c0.1-0.4,0.3-0.9,0.4-1.3c0.3-0.7,0.5-1.4,0.8-2
					c0.2-0.4,0.3-0.8,0.5-1.2c0.3-0.7,0.6-1.4,1-2.1c0.2-0.3,0.3-0.7,0.5-1c0.4-0.7,0.7-1.5,1.1-2.2c0.1-0.3,0.3-0.5,0.4-0.8
					c0.4-0.8,0.9-1.6,1.3-2.3c0.1-0.2,0.2-0.4,0.3-0.6c0.5-0.8,1-1.6,1.5-2.3c0.1-0.2,0.2-0.4,0.3-0.5c0.5-0.8,1.1-1.6,1.7-2.4
					c0.1-0.1,0.2-0.2,0.3-0.4c0.6-0.8,1.2-1.6,1.8-2.4c0.1-0.1,0.2-0.2,0.2-0.3c0.7-0.8,1.4-1.6,2.1-2.4c0-0.1,0.1-0.1,0.1-0.2
					c0.7-0.8,1.5-1.6,2.2-2.3c0,0,0.1-0.1,0.1-0.1c0.8-0.8,1.6-1.6,2.4-2.3c0,0,0,0,0,0c12.5-11.4,29-18.3,47.2-18.4
					c0.1,0,0.2,0,0.3,0c38.9,0,70.5,31.6,70.5,70.5C270.2,202.5,238.6,234.1,199.7,234.1z"/>
				<g>
					<rect x="273.6" y="67.2" fill="#F0AB00" width="74.2" height="193"/>
					<path opacity="0.7" fill="#F0AB00" d="M199.4,67.2V93c0.1,0,0.2,0,0.3,0c38.9,0,70.5,31.6,70.5,70.5
						c0,38.9-31.6,70.5-70.5,70.5c-0.1,0-0.2,0-0.3,0v26.1h74.2v-193H199.4z"/>
					<path opacity="0.4" fill="#F0AB00" d="M129.1,163.6c0-38.8,31.4-70.4,70.2-70.5V67.2h-74.2v193h74.2v-26.1
						C160.5,233.9,129.1,202.4,129.1,163.6z"/>
				</g>
			</g>
			<path d="M199.7,89.3c-40.9,0-74.2,33.3-74.2,74.2s33.3,74.2,74.2,74.2s74.2-33.3,74.2-74.2S240.6,89.3,199.7,89.3z M266.4,160.3
				h-63.5V96.8C237.1,98.5,264.7,126,266.4,160.3z M132.8,163.6c0-35.4,27.7-64.5,62.6-66.7v64.2l-46.2,46.2
				C139,195.6,132.8,180.3,132.8,163.6z M199.7,230.4c-17.5,0-33.4-6.7-45.3-17.7l44.9-44.9h67C264.2,202.6,235.1,230.4,199.7,230.4
				z M377.5,289.9V37.5H21.2v252.4h148.5V327h-44.5v37.1h148.5V327h-44.5v-37.1H377.5z M266.2,334.4v22.3H132.5v-22.3h37.1h59.4
				H266.2z M177.1,327v-37h44.5v37H177.1z M28.6,44.9h341.5v237.5H28.6V44.9z"/>
		</g>
		<ellipse fill="#FFFFFF" cx="200" cy="163.9" rx="66.9" ry="67.6"/>
	</g>
	<g id="Layer_62">
		<polyline fill="none" stroke="#000000" stroke-width="3" stroke-miterlimit="10" points="141.2,178.1 152.3,167.1 177.9,192.8 
			245.6,125.6 245.6,146.8 177.9,213.1 142.1,177.2 		"/>
	</g>
	<g id="Layer_59" display="none">
		<path display="inline" d="M317,247.6V91.3H77.4v156.2h104.2v41.7h-36.5v20.8h104.2v-20.8h-36.5v-41.7H317z M82.6,242.4V96.5h229.2
			v145.8h-99h-31.2H82.6z M244.1,294.4v10.4h-93.7v-10.4h31.2h31.2H244.1z M207.6,289.2h-20.8v-41.7h20.8V289.2z M301.4,106.9H93.1
			v125h208.3V106.9z M296.2,226.7H98.3V112.2h197.9V226.7z"/>
	</g>
	<g id="ClassRoom_Overview_2">
		<g id="Layer_48" display="none">
			<circle display="inline" fill="none" cx="199" cy="209.4" r="152"/>
			<circle display="inline" fill="none" stroke="#AF7B08" stroke-miterlimit="10" cx="197.6" cy="190.8" r="131.1"/>
		</g>
		<g id="Layer_45" display="none">
			<path display="inline" fill="none" stroke="#000000" stroke-width="3" stroke-miterlimit="10" d="M135.4,137.6
				c0,0,12.9-33,51.7-37.2c25.2-2.7,41.3,7.3,56.2,22.5c0.6,0.6-14,8.7-14,8.7l46.2,11.5l11.4-47l-12.5,7.8c0,0-30.4-45.9-91.5-39.7
				s-80.3,58.6-80.3,58.6L135.4,137.6z"/>
		</g>
		<g id="Layer_50" display="none">
			<path display="inline" d="M118.2,277.6l42.7-42v23h114.5v38.2H161v23.6L118.2,277.6z M270.7,263.3H156.2v-16.4L125,277.6
				l31.2,31.2v-16.9h114.5V263.3z"/>
			<path display="inline" d="M238.7,145.3v-23.6H124.2V83.5h114.5v-23l42.7,42L238.7,145.3z M129,116.9h114.5v16.9l31.2-31.2
				l-31.2-30.7v16.4H129V116.9z"/>
			<g display="inline">
				<polygon fill="#970A82" points="601.8,71 566,35.7 566,55 550,55 506,55 461,55 418,55 418,87 461,87 506,87 550,87 566,87 
					566,106.8 				"/>
				<g>
					<rect x="418" y="55" fill="#F0AB00" width="43" height="32"/>
					<rect x="461" y="55" opacity="0.7" fill="#F0AB00" width="45" height="32"/>
					<rect x="506" y="55" opacity="0.4" fill="#F0AB00" width="44" height="32"/>
				</g>
			</g>
		</g>
		<g id="Layer_46" display="none">
			<path display="inline" fill="none" stroke="#000000" stroke-miterlimit="10" d="M270,242.9c0,0-21.3,41.1-72.2,41.3
				c-33.1,0.1-52.6-15.1-70-36.9c-0.7-0.9,19.4-9.5,19.4-9.5l-58.5-21.3l-21.3,59.5l17.3-8.5c0,0,33.3,63.8,113.5,64
				c80.3,0.2,112.3-65.3,112.3-65.3L270,242.9z"/>
		</g>
		<g id="Layer_49" display="none">
			<path display="inline" fill="none" stroke="#000000" stroke-width="3" stroke-miterlimit="10" d="M141.6,245.2
				c0,0,12.9,33,51.7,37.2c25.2,2.7,41.3-7.3,56.2-22.5c0.6-0.6-14-8.7-14-8.7l46.2-11.5l11.4,47l-12.5-7.8c0,0-30.4,45.9-91.5,39.7
				c-61.1-6.2-80.3-58.6-80.3-58.6L141.6,245.2z"/>
		</g>
		<g display="none">
			<g display="inline">
				<path fill="#970A82" d="M203.6,173.5c-1.2-10.6-7.9-20.3-18.4-24.9c-10.5-4.6-22.1-2.8-30.7,3.5c-4.2,3.1-7.7,7.4-10,12.5
					c-2.2,5.2-3,10.6-2.4,15.8c1.2,10.6,7.9,20.3,18.4,24.9c10.5,4.6,22.1,2.8,30.7-3.5c4.2-3.1,7.7-7.4,10-12.5
					C203.5,184.1,204.2,178.7,203.6,173.5z"/>
				<g>
					<path fill="#F0AB00" d="M177.5,146.4l19.7,49.8c6.6-8.4,8.8-19.9,4.5-30.6C197.5,155,188,148,177.5,146.4z"/>
					<path opacity="0.7" fill="#F0AB00" d="M177.5,146.4c-5.2-0.8-10.7-0.2-15.9,1.8l22.7,57.5c5.2-2.1,9.6-5.4,12.9-9.5
						L177.5,146.4z"/>
					<path opacity="0.4" fill="#F0AB00" d="M148.7,157.7l19.7,49.8c5.2,0.8,10.7,0.2,15.9-1.8l-22.7-57.5
						C156.3,150.3,152,153.6,148.7,157.7z"/>
				</g>
			</g>
			<path display="inline" d="M272.5,210.6l-52.4-22.7l-1.3,3l-9.6-4.2c2-7.5,1.8-15.7-1.3-23.5c-7.6-19.3-29.5-28.7-48.7-21.1
				c-19.3,7.6-28.7,29.5-21.1,48.7s29.5,28.7,48.7,21.1c7.4-2.9,13.3-7.9,17.4-14.1l9.8,4.3l-1.3,3l52.4,22.7l1.4-3.1
				c1.2,0.3,2.5,0.2,3.7-0.2c1.4-0.6,2.7-1.7,3.3-3.2c1.2-2.8,0.2-5.9-2.3-7.5L272.5,210.6z M140,190c-7.2-18.1,1.8-38.7,19.9-45.9
				c18.1-7.2,38.7,1.8,45.9,19.9c7.2,18.1-1.8,38.7-19.9,45.9C167.8,217,147.2,208.1,140,190z M205.3,195.9c1.3-2.2,2.4-4.6,3.2-7
				l9.4,4.1l-3.1,7.1L205.3,195.9z M215.5,203.9l5.7-13.2l48.3,21l-5.7,13.2L215.5,203.9z M271.3,220.3c-0.7,1.6-2.4,2.5-4.1,2.3
				l3-6.8C271.5,216.8,272.1,218.7,271.3,220.3z"/>
		</g>
	</g>
	<g id="Layer_60" display="none">
		<g display="inline">
			<g>
				<polygon fill="#970A82" points="185.8,216.2 150.8,181.3 166.8,165.3 201.8,200.2 				"/>
				<g>
					<polygon opacity="0.4" fill="#F0AB00" points="193.8,208.2 158.8,173.3 162.8,169.3 197.8,204.2 					"/>
					<polygon opacity="0.7" fill="#F0AB00" points="189.8,212.2 154.8,177.3 158.8,173.3 193.8,208.2 					"/>
					<polygon fill="#F0AB00" points="185.8,216.2 150.8,181.3 154.8,177.3 189.8,212.2 					"/>
				</g>
			</g>
			<path d="M201.8,200.2l-1.4-1.4l46-46.2L230,136.2l-46.2,46l-1.4-1.4l47.6-47.4l19.2,19.1L201.8,200.2z"/>
		</g>
	</g>
	<g id="Layer_61">
	</g>
</g>
<g id="Guides">
</g>
</svg>
