<?xml version="1.0" encoding="utf-8"?>
<!-- Generator: Adobe Illustrator 18.1.1, SVG Export Plug-In . SVG Version: 6.00 Build 0)  -->
<svg version="1.1" id="Certification" xmlns="http://www.w3.org/2000/svg" xmlns:xlink="http://www.w3.org/1999/xlink" x="0px"
	 y="0px" viewBox="0 0 400 400" enable-background="new 0 0 400 400" xml:space="preserve">
<g id="Layer_51">
	<path d="M332.2,345.5l-232.6,0l0-312.8l165.5,0v-8l-173.5,0v16l-24.1,0l0,336.8l256.6,0l0-24.1l16,0l0-244.8l-8-2.1L332.2,345.5z
		 M316.2,369.6l-240.6,0l0-320.8l16,0l0,304.8l224.6,0V369.6z"/>
	<path d="M265.1,24.7l0,84l75.3,0L265.1,24.7z M273.5,45l49.6,55.3l-49.6,0L273.5,45z"/>
</g>
<g id="Layer_76">
	<g>
		<path d="M188.6,127.5v17.1l0,142.7L161.1,260l-27.2,27.3l0-146.1v-17.1h-4.6v17.1l0,157.2v17.1l31.8-31.9l32.1,31.9v-17.1l0-153.7
			v-17.1H188.6z M188.6,304.5l-27.5-27.4l-27.2,27.3v-10.6l27.2-27.4l27.5,27.4V304.5z"/>
		<g>
			<path fill="#008FD3" d="M213.5,94.5c-2.4-9-7.1-17.5-14.2-24.5c-7.1-7.1-15.6-11.8-24.5-14.2c-18.3-4.9-38.5-0.2-52.9,14.2
				c-14.3,14.3-19,34.6-14.2,52.9c2.4,9,7.1,17.5,14.2,24.5c7.1,7.1,15.6,11.8,24.5,14.2c18.3,4.9,38.5,0.2,52.9-14.2
				C213.7,133.1,218.4,112.8,213.5,94.5z"/>
			<g>
				<path opacity="0.4" fill="#F0AB00" d="M107.8,122.9c2.4,9,7.1,17.5,14.2,24.5L199.3,70c-7.1-7.1-15.6-11.8-24.5-14.2
					L107.8,122.9z"/>
				<path opacity="0.7" fill="#F0AB00" d="M146.5,161.6l67-67c-2.4-9-7.1-17.5-14.2-24.5l-77.4,77.4
					C129,154.5,137.5,159.2,146.5,161.6z"/>
				<path fill="#F0AB00" d="M213.5,94.5l-67,67c18.3,4.9,38.5,0.2,52.9-14.2C213.7,133.1,218.4,112.8,213.5,94.5z"/>
			</g>
		</g>
	</g>
</g>
</svg>
