<?xml version="1.0" encoding="utf-8"?>
<!-- Generator: Adobe Illustrator 18.1.1, SVG Export Plug-In . SVG Version: 6.00 Build 0)  -->
<svg version="1.1" xmlns="http://www.w3.org/2000/svg" xmlns:xlink="http://www.w3.org/1999/xlink" x="0px" y="0px"
	 viewBox="0 0 400 400" enable-background="new 0 0 400 400" xml:space="preserve">
<g id="Learning_Journey">
	<path d="M57.7,224.4l0,5.8c51.1,0,94.3,42.3,94.3,92.3v2.9h57.8v-2.9c0-33.4-11.3-66-31.9-92.3l47,0l0-57.7l-47.8,0
		c21.2-26.4,32.6-58.5,32.6-92.3v-2.9l-57.8,0v2.9c0,50-43.2,92.3-94.3,92.3l0,5.8c26.2,0,51.2-10.2,70.2-28.8
		c18.5-18,29-41.5,29.8-66.4l46.3,0c-0.8,37.2-16.1,72.3-43.3,99C132.8,209.3,96.3,224.4,57.7,224.4z M204,319.5h-46.3
		c-0.8-24.9-11.3-48.4-29.8-66.4c-10.7-10.4-23.2-18.2-36.8-23l80.2,0l-0.5,0.4C191.6,255.6,203.3,287.1,204,319.5z M173,177.4v0.8
		l46.1,0l0,46.1l-119.9,0c24.4-6.9,46.8-19.9,65.5-38.2C167.6,183.3,170.4,180.4,173,177.4z"/>
	<polygon fill="none" stroke="#000000" stroke-width="5" stroke-miterlimit="10" points="245.9,79.9 181.8,33.4 117.7,79.9 
		152,79.9 152.5,79.9 210.2,79.9 210.6,79.9 	"/>
	<polygon fill="none" stroke="#000000" stroke-width="5" stroke-miterlimit="10" points="243,323.4 178.9,369.8 114.8,323.4 
		149.2,323.4 149.6,323.4 207.3,323.4 207.7,323.4 	"/>
	<line fill="none" stroke="#000000" stroke-width="5" stroke-miterlimit="10" x1="58.5" y1="172.8" x2="58.5" y2="228.1"/>
	<g id="Layer_77">
		<polygon fill="#008FD3" points="301.7,266.4 348.4,201.9 301.7,137.4 301.7,172 301.7,172.5 259.6,172.5 219,172.5 179.8,172.5 
			179.8,230.5 219,230.5 259.6,230.5 301.7,230.5 301.7,231 		"/>
		<g>
			<rect x="179.8" y="172.5" fill="#F0AB00" width="39.2" height="58"/>
			<rect x="219" y="172.5" opacity="0.7" fill="#F0AB00" width="40.6" height="58"/>
			<rect x="259.6" y="172.5" opacity="0.4" fill="#F0AB00" width="42.1" height="58"/>
		</g>
		<rect x="-193" y="97.4" fill="none" width="0" height="0"/>
	</g>
</g>
<g id="Layer_3">
</g>
</svg>
