<?xml version="1.0" encoding="utf-8"?>
<!-- Generator: Adobe Illustrator 18.1.1, SVG Export Plug-In . SVG Version: 6.00 Build 0)  -->
<svg version="1.1" xmlns="http://www.w3.org/2000/svg" xmlns:xlink="http://www.w3.org/1999/xlink" x="0px" y="0px"
	 viewBox="0 0 400 400" enable-background="new 0 0 400 400" xml:space="preserve">
<g id="Simulation">
	<path fill="#008FD3" d="M361,192.4c-2.3-17.5-7.5-34.5-15.3-50.4c-7.7-15.7-18-30.2-30.7-42.8l-37.7,37.7
		c8.3,8.3,15.3,18,20.6,28.7c5.2,10.4,8.7,21.8,10.2,33.8c0.6,4.6,1,9.4,1,14.2c0,7.2-0.7,14.3-2.1,21.1
		c-2.3,11.8-6.6,22.9-12.5,33.1l46.2,26.7c9.1-15.8,15.2-32.4,18.6-49.3C362.8,227.6,363.3,209.8,361,192.4z"/>
	<path fill="#008FD3" d="M228.8,318.2c-9,2.4-18.4,3.7-28.1,3.7c-2.4,0-4.7-0.1-7.1-0.3c-12.1-0.8-23.7-3.5-34.4-8
		c-11-4.6-21.1-10.9-30-18.7c-8.9-7.8-16.5-17-22.4-27.3l-46.2,26.6c9.1,15.8,20.4,29.4,33.4,40.8c13.4,11.8,28.6,21.1,44.8,27.8
		c16.3,6.7,33.7,10.8,51.3,12c17.4,1.2,35.1-0.5,52.4-5.1L228.8,318.2z"/>
	<path fill="#008FD3" d="M148.7,60.4c-16.9,5.7-32.6,14.2-46.4,24.9C88.2,96,76,109,66.2,123.7c-9.7,14.5-17.1,30.7-21.8,48
		L96,185.5c3.1-11.6,8.1-22.4,14.6-32.2c6.6-9.9,14.8-18.6,24.2-25.8c9.3-7.2,19.8-12.8,31.1-16.7c10.9-3.7,22.7-5.8,34.8-5.8
		l0-53.3C182.5,51.8,165,54.8,148.7,60.4z"/>
	<path fill="#F0AB00" d="M307,234.7c-2.3,11.8-6.6,22.9-12.5,33.1l46.2,26.7c9.1-15.8,15.2-32.4,18.6-49.3L307,234.7z"/>
	<path fill="#F0AB00" d="M106.8,267.7l-46.2,26.6c9.1,15.8,20.4,29.4,33.4,40.8l35.2-40.1C120.4,287.2,112.8,278,106.8,267.7z"/>
	<path fill="#F0AB00" d="M200.7,105.1l0-53.3c-18.2,0-35.7,3-52,8.5l17.1,50.5C176.8,107.2,188.5,105.1,200.7,105.1z"/>
	<path opacity="0.7" fill="#F0AB00" d="M361,192.4l-52.9,7c0.6,4.6,1,9.4,1,14.2c0,7.2-0.7,14.3-2.1,21.1l52.3,10.4
		C362.8,227.6,363.3,209.8,361,192.4z"/>
	<path opacity="0.7" fill="#F0AB00" d="M129.2,295L94,335.2c13.4,11.8,28.6,21.1,44.8,27.8l20.4-49.2
		C148.2,309.1,138.1,302.8,129.2,295z"/>
	<path opacity="0.7" fill="#F0AB00" d="M165.8,110.9l-17.1-50.5c-16.9,5.7-32.6,14.2-46.4,24.9l32.5,42.3
		C144,120.4,154.5,114.7,165.8,110.9z"/>
	<path opacity="0.4" fill="#F0AB00" d="M308.1,199.4l52.9-7c-2.3-17.5-7.5-34.5-15.3-50.4l-47.8,23.6
		C303.1,176,306.6,187.4,308.1,199.4z"/>
	<path opacity="0.4" fill="#F0AB00" d="M159.2,313.7l-20.4,49.2c16.3,6.7,33.7,10.8,51.3,12l3.5-53.2
		C181.5,320.9,169.9,318.1,159.2,313.7z"/>
	<path opacity="0.4" fill="#F0AB00" d="M134.7,127.5l-32.5-42.3C88.2,96,76,109,66.2,123.7l44.3,29.6
		C117.1,143.4,125.3,134.7,134.7,127.5z"/>
	<g id="Layer_165" display="none">
		<path display="inline" d="M197.3,127.4l21.2-104.6L297.4,92L197.3,127.4z M220,27.1l-19.7,96.8L293,91.1L220,27.1z"/>
		<polygon display="inline" fill="#FFFFFF" points="220,27.1 293,91.1 200.4,123.9 		"/>
		<path display="inline" d="M164.6,242.2l-94,50.7L73.4,188L164.6,242.2z M73,289l87-46.9l-84.4-50.2L73,289z"/>
		<polygon display="inline" fill="#FFFFFF" points="73,289 75.5,191.9 160,242.1 		"/>
		<path display="inline" d="M264.2,366.5l-68.9-81.6l103.2-18.8L264.2,366.5z M199.6,286.4l63.7,75.5l31.8-92.9L199.6,286.4z"/>
		<polygon display="inline" fill="#FFFFFF" points="199.6,286.4 295.2,269 263.4,361.9 		"/>
	</g>
	<g id="Layer_167" display="none">
		
			<circle display="inline" fill="#FFFFFF" stroke="#000000" stroke-width="2" stroke-miterlimit="10" cx="236.8" cy="85.2" r="40.8"/>
		
			<circle display="inline" fill="#FFFFFF" stroke="#000000" stroke-width="2" stroke-miterlimit="10" cx="263.6" cy="312" r="40.8"/>
		
			<circle display="inline" fill="#FFFFFF" stroke="#000000" stroke-width="2" stroke-miterlimit="10" cx="104.4" cy="247.3" r="40.8"/>
	</g>
	<g id="Layer_168">
		<g>
			<g>
				<polygon fill="#231F20" points="200.7,132.8 200.7,105.2 205.3,105.2 205.3,121.7 247.8,79.2 205.3,36.6 205.3,53.1 200.7,53.1 
					200.7,25.6 254.3,79.2 				"/>
			</g>
		</g>
		<g>
			<g>
				<polygon fill="#231F20" points="61.3,294.1 59,290.2 44.7,298.4 60.3,240.3 118.4,255.9 104.1,264.1 106.4,268.1 130.3,254.3 
					57.1,234.7 37.4,307.9 				"/>
			</g>
		</g>
		<g>
			<g>
				<polygon fill="#231F20" points="363.9,307.5 340,293.8 337.8,297.7 352,306 293.9,321.5 278.3,263.4 292.6,271.7 294.9,267.7 
					271,253.9 290.7,327.2 				"/>
			</g>
		</g>
	</g>
	<g id="Layer_166" display="none">
		<path display="inline" d="M232.7,261.8L204,229.3l-25.2,25.2l-27.3-90.2l90.2,27.3l-25.2,25.2l32.5,28.7L232.7,261.8z
			 M204.1,226.2l28.7,32.5l13.1-13.1l-32.5-28.7l24.3-24.3l-82.9-25.1l25.1,82.9L204.1,226.2z"/>
		<g display="inline">
			<polygon fill="#008FD3" points="207.3,-141.5 189.3,-147 171.3,-152.4 153.4,-157.9 158.8,-139.9 164.3,-121.9 169.7,-103.9 
				175.2,-85.9 225.3,-136.1 			"/>
			<g>
				<polygon fill="#F0AB00" points="171.3,-152.4 153.4,-157.9 158.8,-139.9 				"/>
				<polygon opacity="0.7" fill="#F0AB00" points="164.3,-121.9 189.3,-147 171.3,-152.4 158.8,-139.9 				"/>
				<polygon opacity="0.4" fill="#F0AB00" points="169.7,-103.9 207.3,-141.5 189.3,-147 164.3,-121.9 				"/>
			</g>
		</g>
	</g>
	<g id="Layer_169">
		<circle fill="none" stroke="#231F20" stroke-width="3" stroke-miterlimit="10" cx="198.9" cy="214.1" r="59.1"/>
	</g>
	<g id="Layer_170" display="none">
		<path display="inline" d="M180.4,220.2h-34.1v-2.2H182l9.1,31.9L218,167l15.4,51h24.3l-2,2.2h-24L218,174.5l-27,83.1L180.4,220.2z
			"/>
	</g>
	<g id="Layer_178">
		<path d="M174.5,257.1l0-83.6l71.3,40.9L174.5,257.1z M176.3,176.6l0,77.3l65.9-39.5L176.3,176.6z"/>
		<polygon fill="none" stroke="#000000" stroke-width="3" stroke-miterlimit="10" points="176.3,176.6 242.3,214.4 176.3,253.9 		
			"/>
	</g>
</g>
<g id="Guides">
</g>
</svg>
