<?xml version="1.0" encoding="utf-8"?>
<!-- Generator: Adobe Illustrator 18.1.1, SVG Export Plug-In . SVG Version: 6.00 Build 0)  -->
<svg version="1.1" xmlns="http://www.w3.org/2000/svg" xmlns:xlink="http://www.w3.org/1999/xlink" x="0px" y="0px"
	 viewBox="0 0 400 400" enable-background="new 0 0 400 400" xml:space="preserve">
<g id="eBook">
	<g id="Layer_99">
	</g>
	<g display="none">
		<g display="inline">
			<polygon fill="#970A82" points="216,106.1 244.9,106.1 244.9,226.6 230.7,218.7 216,226.6 			"/>
			<g>
				<rect x="216" y="166.3" opacity="0.4" fill="#F0AB00" width="28.9" height="30.1"/>
				<rect x="216" y="136.2" opacity="0.7" fill="#F0AB00" width="28.9" height="30.1"/>
				<rect x="216" y="106.1" fill="#F0AB00" width="28.9" height="30.1"/>
			</g>
		</g>
		<path display="inline" d="M302.7,125.9v-11.1l-1.2-0.7c-0.9-0.5-22.6-12.4-53-12.4c-26.9,0-47,9.3-51.9,11.8
			c-5.2-2.4-26.9-11.8-51.8-11.8c-30,0-52.1,11.8-53,12.3l-1.3,0.7v11.1H76.2v168.7h106.1h2.4h24.1h2.4h106.1V125.9H302.7z
			 M297.9,117.8v69.6v12.1v55c-7.1-3.5-24.2-10.4-49.4-10.4c-25.2,0-42.3,6.9-49.4,10.4V117.8c4.9-2.4,24.3-11.1,49.4-11.1
			C273.6,106.7,293,115.3,297.9,117.8z M144.9,268.1c-23.9,0-42,7.1-49.4,10.6V272c4.9-2.4,23.9-11.1,49.4-11.1
			c26.4,0,44.8,8.6,49.4,11.1v6.6C187,275.1,169.4,268.1,144.9,268.1z M199.1,259.9c4.4-2.4,21.9-11,49.4-11c27.4,0,45,8.6,49.4,11
			v6.6c-7.1-3.5-24.2-10.4-49.4-10.4c-25.2,0-42.3,6.9-49.4,10.4V259.9z M194.3,266.6c-7.2-3.5-24.8-10.5-49.4-10.5
			c-23.9,0-42,7.1-49.4,10.6V260c4.9-2.4,23.9-11.1,49.4-11.1c26.4,0,44.8,8.6,49.4,11.1V266.6z M199.1,271.9
			c4.4-2.4,21.9-11,49.4-11c27.4,0,45,8.6,49.4,11v6.6c-7.1-3.5-24.2-10.4-49.4-10.4c-25.2,0-42.3,6.9-49.4,10.4V271.9z M95.5,117.8
			c5-2.4,24.6-11.1,49.4-11.1c23.2,0,44.1,8.7,49.4,11.2v136.7C187,251,169.4,244,144.9,244c-23.9,0-42,7.1-49.4,10.6v-55.1v-12.1
			V117.8z M81,289.8V130.8h9.6v56.6v12.1v63.2v12.1v12.1l3.6-2c0.2-0.1,21.1-11.7,50.6-11.7c15.7,0,28.5,3,37.4,6v10.8H81z
			 M187,289.8v-9.1c5.4,2.1,8.3,3.9,8.4,3.9l1.3,0.8l1.3-0.8c0.1,0,3-1.8,8.3-4v9.2H187z M312.4,289.8H211.1V279h-0.5
			c8.6-3,21.5-6,37.8-6c31.8,0,50.3,11.6,50.5,11.7l3.7,2.4V275v-12.1v-63.5v-12.1v-56.6h9.6V289.8z"/>
	</g>
	<g id="Layer_70">
		<g>
			<g>
				<polygon fill="#008FD3" points="227.5,65 270,65 270,242.4 249.2,230.9 227.5,242.4 				"/>
				<g>
					<rect x="227.5" y="153.7" opacity="0.4" fill="#F0AB00" width="42.6" height="44.4"/>
					<rect x="227.5" y="109.3" opacity="0.7" fill="#F0AB00" width="42.6" height="44.4"/>
					<rect x="227.5" y="65" fill="#F0AB00" width="42.6" height="44.4"/>
				</g>
			</g>
			<path d="M355.2,94.2V78l-1.8-1c-1.3-0.7-33.3-18.2-78-18.2c-39.6,0-69.2,13.7-76.4,17.3c-7.6-3.5-39.5-17.3-76.2-17.3
				c-44.2,0-76.6,17.4-78,18.2l-1.8,1v16.3H21.7v248.4h156.1h3.5h35.5h3.5h156.1V94.2H355.2z M348.1,82.2v102.5v17.7v81
				c-10.5-5.2-35.6-15.3-72.7-15.3c-37.2,0-62.3,10.1-72.7,15.3V82.2c7.3-3.6,35.7-16.4,72.7-16.4C312.3,65.9,340.8,78.6,348.1,82.2
				z M122.8,303.6c-35.1,0-61.9,10.5-72.7,15.5v-9.8c7.2-3.6,35.2-16.3,72.7-16.3c38.9,0,65.9,12.7,72.7,16.3v9.8
				C184.9,313.9,159,303.6,122.8,303.6z M202.6,291.4c6.5-3.6,32.3-16.2,72.7-16.2c40.3,0,66.2,12.7,72.7,16.2v9.7
				c-10.5-5.2-35.6-15.3-72.7-15.3c-37.2,0-62.3,10.1-72.7,15.3V291.4z M195.5,301.3c-10.7-5.1-36.6-15.4-72.7-15.4
				c-35.1,0-61.9,10.5-72.7,15.5v-9.8c7.2-3.6,35.2-16.3,72.7-16.3c38.9,0,65.9,12.7,72.7,16.3V301.3z M202.6,309.2
				c6.5-3.6,32.3-16.2,72.7-16.2c40.3,0,66.2,12.7,72.7,16.2v9.7c-10.5-5.2-35.6-15.3-72.7-15.3c-37.2,0-62.3,10.1-72.7,15.3V309.2z
				 M50,82.2c7.4-3.6,36.2-16.4,72.7-16.4c34.1,0,64.9,12.9,72.7,16.4v201.2c-10.7-5.1-36.6-15.4-72.7-15.4
				c-35.1,0-61.9,10.5-72.7,15.5v-81.2v-17.7V82.2z M28.8,335.5V101.3h14.2v83.4v17.7v93v17.7V331l5.3-3c0.3-0.2,31-17.3,74.5-17.3
				c23.1,0,42,4.5,55,8.9v16H28.8z M184.9,335.5v-13.4c7.9,3.1,12.3,5.7,12.4,5.8l1.9,1.1l1.9-1.2c0.1-0.1,4.4-2.7,12.3-5.9v13.6
				H184.9z M369.4,335.5h-149v-16h-0.7c12.7-4.4,31.6-8.9,55.7-8.9c46.7,0,74.1,17,74.4,17.2l5.5,3.5v-17.7v-17.7v-93.4v-17.7v-83.4
				h14.2V335.5z"/>
		</g>
	</g>
	<g id="Layer_15" display="none">
		<g display="inline">
			<path d="M170.8,217L151,194.6L133.6,212l-18.9-62.4l62.4,18.9l-17.4,17.4l22.5,19.8L170.8,217z M151.1,192.4l19.8,22.5l9-9
				L157.5,186l16.8-16.8l-57.4-17.4l17.4,57.4L151.1,192.4z"/>
			<g>
				<polygon fill="#970A82" points="162.5,158.3 150,154.5 137.4,150.7 124.9,146.9 128.7,159.4 132.5,172 136.3,184.5 140.1,197.1 
					175.1,162.1 				"/>
				<g>
					<polygon fill="#F0AB00" points="137.4,150.7 124.9,146.9 128.7,159.4 					"/>
					<polygon opacity="0.7" fill="#F0AB00" points="132.5,172 150,154.5 137.4,150.7 128.7,159.4 					"/>
					<polygon opacity="0.4" fill="#F0AB00" points="136.3,184.5 162.5,158.3 150,154.5 132.5,172 					"/>
				</g>
			</g>
		</g>
	</g>
	<g id="Layer_100">
		<polyline fill="none" stroke="#008FD3" stroke-miterlimit="10" points="79.1,128 107.1,219.3 134.4,193.3 164.1,227 180.1,214.2 
			144.8,182.6 170.5,155.6 80.8,128 		"/>
	</g>
	<g id="Layer_71">
		<path stroke="#000000" stroke-width="2" stroke-miterlimit="10" d="M164,230.3l-30.6-34.7l-26.9,26.9l-29.1-96.2l96.2,29.1
			l-26.9,26.9l34.7,30.6L164,230.3z M133.5,192.3l30.6,34.7L178,213l-34.7-30.6l25.9-25.9l-88.5-26.8l26.8,88.5L133.5,192.3z"/>
	</g>
	<g id="Layer_71_copy" display="none">
		<g display="inline">
			<path d="M172.5,219.5l-20.6-23.3l-18.1,18.1l-19.6-64.7l64.7,19.6l-18.1,18.1l23.3,20.6L172.5,219.5z M152,194l20.6,23.3l9.4-9.4
				l-23.3-20.6l17.4-17.4l-59.5-18l18,59.5L152,194z"/>
			<g>
				<polygon fill="#008FD3" points="163.9,158.6 150.9,154.6 137.9,150.7 124.8,146.7 128.8,159.8 132.7,172.8 136.7,185.8 
					140.6,198.8 176.9,162.5 				"/>
				<g>
					<polygon fill="#F0AB00" points="137.9,150.7 124.8,146.7 128.8,159.8 					"/>
					<polygon opacity="0.7" fill="#F0AB00" points="132.7,172.8 150.9,154.6 137.9,150.7 128.8,159.8 					"/>
					<polygon opacity="0.4" fill="#F0AB00" points="136.7,185.8 163.9,158.6 150.9,154.6 132.7,172.8 					"/>
				</g>
			</g>
		</g>
	</g>
</g>
<g id="Guides">
</g>
</svg>
