<?xml version="1.0" encoding="utf-8"?>
<!-- Generator: Adobe Illustrator 18.1.1, SVG Export Plug-In . SVG Version: 6.00 Build 0)  -->
<svg version="1.1" xmlns="http://www.w3.org/2000/svg" xmlns:xlink="http://www.w3.org/1999/xlink" x="0px" y="0px"
	 viewBox="0 0 400 400" enable-background="new 0 0 400 400" xml:space="preserve">
<g id="LearningRoom">
	<g id="Layer_64">
		<g display="none">
			<path display="inline" fill="#AB218E" d="M201.2,102.4C144.8,102.4,99,148.2,99,204.7c0,56.5,45.8,102.3,102.3,102.3
				s102.3-45.8,102.3-102.3C303.5,148.2,257.7,102.4,201.2,102.4z M201.2,275.8c-39.3,0-71.1-31.8-71.1-71.1s31.8-71.1,71.1-71.1
				s71.1,31.8,71.1,71.1S240.5,275.8,201.2,275.8z"/>
			<g display="inline">
				<path opacity="0.4" fill="#FDB913" d="M201.2,118c-47.9,0-86.7,38.8-86.7,86.7s38.8,86.7,86.7,86.7s86.7-38.8,86.7-86.7
					S249.1,118,201.2,118z M201.2,283.6c-43.6,0-78.9-35.3-78.9-78.9c0-43.6,35.3-78.9,78.9-78.9c43.6,0,78.9,35.3,78.9,78.9
					C280.2,248.3,244.8,283.6,201.2,283.6z"/>
				<path fill="#FDB913" d="M201.2,102.4C144.8,102.4,99,148.2,99,204.7c0,56.5,45.8,102.3,102.3,102.3s102.3-45.8,102.3-102.3
					C303.5,148.2,257.7,102.4,201.2,102.4z M201.2,299.1c-52.2,0-94.5-42.3-94.5-94.5s42.3-94.5,94.5-94.5s94.5,42.3,94.5,94.5
					S253.4,299.1,201.2,299.1z"/>
				<g opacity="0.7">
					<path fill="#FDB913" d="M201.2,110.2c-52.2,0-94.5,42.3-94.5,94.5s42.3,94.5,94.5,94.5s94.5-42.3,94.5-94.5
						S253.4,110.2,201.2,110.2z M201.2,291.4c-47.9,0-86.7-38.8-86.7-86.7s38.8-86.7,86.7-86.7s86.7,38.8,86.7,86.7
						S249.1,291.4,201.2,291.4z"/>
				</g>
			</g>
		</g>
		<path fill="none" stroke="#000000" stroke-width="3" stroke-miterlimit="10" d="M114.2,264.1l0-36.1c0-5.9,2.1-11.6,5.8-16.1
			c5.4-6.2,13.1-9.8,20.5-9.8c7.4,0,15,3.7,20.4,9.8c3.7,4.6,5.8,10.3,5.8,16.2l0,36.1L114.2,264.1z"/>
		<path fill="none" stroke="#000000" stroke-width="3" stroke-miterlimit="10" d="M174,227.8l0-36.1c0-5.9,2.1-11.6,5.8-16.1
			c5.4-6.2,13.1-9.8,20.5-9.8c7.4,0,15,3.7,20.4,9.8c3.7,4.6,5.8,10.3,5.8,16.2l0,36.1L174,227.8z"/>
		<path fill="none" stroke="#000000" stroke-width="3" stroke-miterlimit="10" d="M233.8,265.6l0-36.1c0-5.9,2.1-11.6,5.8-16.1
			c5.4-6.2,13.1-9.8,20.5-9.8c7.4,0,15,3.7,20.4,9.8c3.7,4.6,5.8,10.3,5.8,16.2l0,36.1L233.8,265.6z"/>
		<circle fill="none" stroke="#000000" stroke-width="3" stroke-miterlimit="10" cx="139.2" cy="167.2" r="23"/>
		<circle fill="none" stroke="#000000" stroke-width="3" stroke-miterlimit="10" cx="200.6" cy="129.4" r="23"/>
		<circle fill="none" stroke="#000000" stroke-width="3" stroke-miterlimit="10" cx="261.9" cy="167.2" r="23"/>
	</g>
	<g id="Layer_75">
		<g>
			<path fill="#008FD3" d="M199.7,35.4c-91.8,0-166.2,74.4-166.2,166.2c0,91.8,74.4,166.2,166.2,166.2
				c91.8,0,166.2-74.4,166.2-166.2C365.9,109.8,291.5,35.4,199.7,35.4z M199.7,317.2C135.8,317.2,84,265.4,84,201.6
				c0-63.9,51.8-115.6,115.6-115.6s115.6,51.8,115.6,115.6C315.3,265.4,263.5,317.2,199.7,317.2z"/>
			<g>
				<path opacity="0.4" fill="#F0AB00" d="M199.7,60.6c-77.8,0-140.9,63.1-140.9,140.9s63.1,140.9,140.9,140.9
					s140.9-63.1,140.9-140.9S277.5,60.6,199.7,60.6z M199.7,329.8c-70.8,0-128.3-57.4-128.3-128.3c0-70.8,57.4-128.3,128.3-128.3
					c70.8,0,128.3,57.4,128.3,128.3C327.9,272.4,270.5,329.8,199.7,329.8z"/>
				<path fill="#F0AB00" d="M199.7,35.4c-91.8,0-166.2,74.4-166.2,166.2c0,91.8,74.4,166.2,166.2,166.2
					c91.8,0,166.2-74.4,166.2-166.2C365.9,109.8,291.5,35.4,199.7,35.4z M199.7,355.1c-84.8,0-153.6-68.7-153.6-153.6
					C46.1,116.8,114.9,48,199.7,48s153.6,68.7,153.6,153.6C353.2,286.4,284.5,355.1,199.7,355.1z"/>
				<g opacity="0.7">
					<path fill="#F0AB00" d="M199.7,48c-84.8,0-153.6,68.7-153.6,153.6c0,84.8,68.7,153.6,153.6,153.6
						c84.8,0,153.6-68.7,153.6-153.6C353.2,116.8,284.5,48,199.7,48z M199.7,342.5c-77.8,0-140.9-63.1-140.9-140.9
						S121.8,60.6,199.7,60.6c77.8,0,140.9,63.1,140.9,140.9S277.5,342.5,199.7,342.5z"/>
				</g>
			</g>
		</g>
	</g>
</g>
<g id="Guides">
</g>
</svg>
