<?xml version="1.0" encoding="utf-8"?>
<!-- Generator: Adobe Illustrator 18.1.1, SVG Export Plug-In . SVG Version: 6.00 Build 0)  -->
<svg version="1.1" xmlns="http://www.w3.org/2000/svg" xmlns:xlink="http://www.w3.org/1999/xlink" x="0px" y="0px"
	 viewBox="0 0 400 400" enable-background="new 0 0 400 400" xml:space="preserve">
<g id="Survey_1">
	<g id="Survey">
		<g>
			<g>
				<rect x="58.8" y="95" fill="#008FD3" width="198.7" height="248.4"/>
				<rect x="58.8" y="281.3" fill="#F0AB00" width="198.7" height="62.1"/>
				<rect x="58.8" y="219.2" opacity="0.7" fill="#F0AB00" width="198.7" height="62.1"/>
				<rect x="58.8" y="157.1" opacity="0.4" fill="#F0AB00" width="198.7" height="62.1"/>
			</g>
			<path d="M179.4,67.5h-42.6V49.7h7.1v10.6h28.4V49.7h7.1V67.5z M278.8,67.5v279.4c0,9.8-8,17.7-17.7,17.7H55.2
				c-9.8,0-17.7-8-17.7-17.7V67.5c0-9.8,8-17.7,17.7-17.7h60.3l9.8,0.7H202l-1.3-0.7H261C270.8,49.7,278.8,57.7,278.8,67.5z
				 M122.7,49.7v7.1V65L98.6,79.7l-5.3,8.2h129.5l-4.4-7.2l-24.8-15.2v-8.6h0v-7.1h0V38.2h-71V49.7z M271.7,67.5
				c0-5.9-4.8-10.6-10.6-10.6h-60.3v4.7l22.9,14L235.4,95H80.2l13.3-20.5L115.6,61v-4.2H55.2c-5.9,0-10.6,4.8-10.6,10.6v279.4
				c0,5.9,4.8,10.6,10.6,10.6H261c5.9,0,10.6-4.8,10.6-10.6V67.5z"/>
		</g>
	</g>
	<g id="Layer_112">
		<path fill="none" stroke="#FFFFFF" stroke-width="3" stroke-miterlimit="10" d="M314.4,184.2c0,0-4.5,33.1-4.7,42.3
			c-0.2,8.2,4.7,66.1,4.7,66.1l-1.4,19.2l-2.2,5.2l11.3,5.4c0,0,6.7,0.2,8.8,0c2.1-0.2,9.4-7.1,9.4-7.1l-5.1-13.5l0-31.3l1.9-34.9
			l0.6-16.9v-20.2l-1.4-14.5L314.4,184.2z"/>
		<rect x="335" y="180.6" width="11.9" height="6.4"/>
	</g>
	<path d="M315.3,51.1l-20.6,2.6l5.6,84.7l0,10.7l6.4,0l1,37.9h4c-0.2,2.5-1.3,22.5-0.7,55.7c0.1,8.5,0.9,16.5,1.6,24.1
		c0.7,7.2,1.3,14,1.3,20.2c0,14.5-1,22-1.7,23.4c-2.7,4.6-1.8,8.1-0.6,10.2c0.5,0.8,1,1.5,1.7,2.1l14,45.5l14-45.5
		c0,0,0.1-0.1,0.1-0.1c3.2-3.2,3.6-7.7,1-12.2c-0.7-1.3-1.7-8.9-1.7-23.4c0-6.2,0.6-13,1.3-20.2c0.7-7.6,1.4-15.5,1.6-24
		c0.6-33.3-1-62.1-1-62.1l-28.6,0c-0.3-9.9-1.2-40.4-1.2-73.9c0-27.2,0.2-40.8,1.7-46.6l0.4-4L315.3,51.1z M327.3,346.4l-6.1-19.8
		c2.2,0.5,4.3,0.7,5.9,0.7l0.3,0c1.8,0,3.8-0.2,5.9-0.7L327.3,346.4z M336.4,187.1c0,0.2,1.3,20.4,0.8,55.5
		c-0.1,8.3-0.9,16.1-1.5,23.6c-0.7,7.3-1.3,14.3-1.3,20.8c0,6.7,0.2,22.6,2.5,26.6c1.7,2.9,0.6,4,0.1,4.5c-1.9,1.9-6.2,2.9-9.4,2.9
		l-0.3,0c-4.4,0-8.8-1.6-10-3.5c-0.2-0.3-0.8-1.4,0.6-3.8c2.3-4,2.5-19.9,2.5-26.6c0-6.5-0.6-13.4-1.3-20.7
		c-0.7-7.5-1.4-15.3-1.6-23.6c-0.6-35.1,0.7-55.3,0.7-55.5l0-0.1l18.2,0L336.4,187.1z M306.3,106.7c0,9.9,0.1,19.5,0.2,28.5l-5-75.1
		l10.5,0h-2C308.4,67.3,306.3,81.4,306.3,106.7z"/>
	<g id="Layer_109">
		<rect x="58.8" y="95" fill="none" stroke="#008FD3" stroke-miterlimit="10" width="198.7" height="248.4"/>
	</g>
	<g id="Layer_119">
		<line fill="none" stroke="#FFFFFF" stroke-width="2" stroke-miterlimit="10" x1="106.2" y1="156.4" x2="244" y2="156.4"/>
		<line fill="none" stroke="#FFFFFF" stroke-width="2" stroke-miterlimit="10" x1="106.2" y1="218.3" x2="244" y2="218.3"/>
		<line fill="none" stroke="#FFFFFF" stroke-width="2" stroke-miterlimit="10" x1="106.2" y1="281.3" x2="244" y2="281.3"/>
	</g>
	<g id="Layer_120">
		<rect x="67.8" y="127.7" fill="#FFFFFF" width="28.9" height="28.9"/>
		<rect x="67.8" y="190.4" fill="#FFFFFF" width="28.9" height="28.9"/>
		<rect x="67.8" y="252.1" fill="#FFFFFF" width="28.9" height="28.9"/>
		<path fill="none" stroke="#000000" stroke-width="4" stroke-miterlimit="10" d="M311.9,54c0,0,2.7-14.4,15.9-14.4
			c13.2,0,13.3,7.6,14.9,14.4c4.2,18.4,4.2,130.1,4.2,130.1l-39.1,0C307.7,184.2,307.6,66,311.9,54z"/>
	</g>
</g>
<g id="Guides">
</g>
</svg>
